<svg width="50" height="44" viewBox="0 0 50 44" fill="none" xmlns="http://www.w3.org/2000/svg">
<path d="M48.8 36.1447L29.6703 2.92313C29.1923 2.10922 28.5099 1.43436 27.6907 0.965451C26.8715 0.496542 25.9439 0.249863 25 0.249863C24.0561 0.249863 23.1286 0.496542 22.3094 0.965451C21.4902 1.43436 20.8077 2.10922 20.3297 2.92313L1.20003 36.1447C0.740075 36.9319 0.497681 37.8273 0.497681 38.7391C0.497681 39.6508 0.740075 40.5462 1.20003 41.3334C1.67194 42.1523 2.35321 42.8308 3.17394 43.2994C3.99467 43.768 4.9253 44.0098 5.87034 44H44.1297C45.074 44.009 46.0037 43.7669 46.8236 43.2983C47.6435 42.8297 48.3241 42.1516 48.7957 41.3334C49.2563 40.5466 49.4994 39.6514 49.5002 38.7397C49.501 37.8279 49.2593 36.9323 48.8 36.1447ZM23.25 17.75C23.25 17.2859 23.4344 16.8408 23.7626 16.5126C24.0908 16.1844 24.5359 16 25 16C25.4642 16 25.9093 16.1844 26.2375 16.5126C26.5657 16.8408 26.75 17.2859 26.75 17.75V26.5C26.75 26.9641 26.5657 27.4093 26.2375 27.7374C25.9093 28.0656 25.4642 28.25 25 28.25C24.5359 28.25 24.0908 28.0656 23.7626 27.7374C23.4344 27.4093 23.25 26.9641 23.25 26.5V17.75ZM25 37C24.4809 37 23.9733 36.8461 23.5417 36.5576C23.11 36.2692 22.7735 35.8592 22.5748 35.3795C22.3762 34.8999 22.3242 34.3721 22.4255 33.8629C22.5268 33.3537 22.7768 32.886 23.1439 32.5189C23.511 32.1517 23.9787 31.9017 24.4879 31.8004C24.9971 31.6992 25.5249 31.7511 26.0046 31.9498C26.4842 32.1485 26.8942 32.485 27.1826 32.9166C27.4711 33.3483 27.625 33.8558 27.625 34.375C27.625 35.0712 27.3485 35.7389 26.8562 36.2312C26.3639 36.7234 25.6962 37 25 37Z" fill="white"/>
</svg>
