<svg width="49" height="49" viewBox="0 0 49 49" fill="none" xmlns="http://www.w3.org/2000/svg">
<path d="M10.2083 0C7.50092 0 4.90439 1.07552 2.98995 2.98995C1.07552 4.90439 0 7.50092 0 10.2083V38.7917C0 41.4991 1.07552 44.0956 2.98995 46.0101C4.90439 47.9245 7.50092 49 10.2083 49H38.7917C41.4991 49 44.0956 47.9245 46.0101 46.0101C47.9245 44.0956 49 41.4991 49 38.7917V10.2083C49 7.50092 47.9245 4.90439 46.0101 2.98995C44.0956 1.07552 41.4991 0 38.7917 0H10.2083ZM36.1538 19.8205L21.8622 34.1122C21.6725 34.3023 21.4472 34.4532 21.1992 34.5561C20.9511 34.659 20.6852 34.712 20.4167 34.712C20.1481 34.712 19.8822 34.659 19.6342 34.5561C19.3861 34.4532 19.1608 34.3023 18.9712 34.1122L12.8462 27.9872C12.6563 27.7973 12.5058 27.572 12.403 27.324C12.3003 27.0759 12.2474 26.8101 12.2474 26.5417C12.2474 26.2732 12.3003 26.0074 12.403 25.7594C12.5058 25.5113 12.6563 25.286 12.8462 25.0962C13.2295 24.7128 13.7495 24.4974 14.2917 24.4974C14.5601 24.4974 14.8259 24.5503 15.074 24.653C15.322 24.7558 15.5473 24.9063 15.7372 25.0962L20.4167 29.7798L33.2628 16.9295C33.6462 16.5461 34.1662 16.3308 34.7083 16.3308C35.2505 16.3308 35.7705 16.5461 36.1538 16.9295C36.5372 17.3129 36.7526 17.8328 36.7526 18.375C36.7526 18.9172 36.5372 19.4371 36.1538 19.8205Z" fill="white"/>
</svg>
