<svg width="46" height="36" viewBox="0 0 46 36" fill="none" xmlns="http://www.w3.org/2000/svg">
<path d="M18.5 0H41C43.4975 0 45.5 2.0025 45.5 4.5V9H37.8275L32 14.8275V23.8275L27.5 28.3275V36H18.5V28.3275L14 23.8275V12.1725L18.5 7.6725V0ZM36.5 16.6725V22.5H45.5V13.5H39.6725L36.5 16.6725ZM10.8275 9L14 5.8275V0H5C2.5025 0 0.5 2.0025 0.5 4.5V9H10.8275ZM9.5 22.5V13.5H0.5V22.5H9.5ZM14 30.1725L10.8275 27H0.5V31.5C0.5 33.9975 2.5025 36 5 36H14V30.1725ZM35.1725 27L32 30.1725V36H41C43.4975 36 45.5 33.9975 45.5 31.5V27H35.1725Z" fill="white"/>
</svg>
