<svg width="62" height="22" viewBox="0 0 62 22" fill="none" xmlns="http://www.w3.org/2000/svg">
<path d="M57.4068 20.734L56.8256 17.8278H50.3311L49.2977 20.7133L44.0923 20.7237C47.4378 12.6818 49.9229 6.72717 51.5427 2.85475C51.9663 1.84209 52.7181 1.32542 53.8263 1.33317C54.6737 1.34092 56.0557 1.34092 57.9752 1.33575L62 20.7263L57.4068 20.734ZM51.7907 13.8468H55.9782L54.4153 6.56183L51.7907 13.8468ZM18.2435 1.33059L23.4773 1.33575L15.3863 20.7366L10.0879 20.7314C8.75557 15.6069 7.43978 10.4781 6.14058 5.34509C5.88225 4.32209 5.37075 3.6065 4.3865 3.26809C2.93089 2.78188 1.46858 2.31597 0 1.8705L0 1.33575H8.36225C9.80892 1.33575 10.6537 2.03584 10.9249 3.47217C11.1987 4.91109 11.8859 8.57684 12.9916 14.4617L18.2435 1.33059ZM30.6693 1.33575L26.5334 20.734L21.5502 20.7263L25.6783 1.33059L30.6693 1.33575ZM40.7702 0.976669C42.2607 0.976669 44.1388 1.44167 45.2187 1.8705L44.3455 5.89017C43.369 5.4975 41.7622 4.96792 40.4111 4.986C38.4477 5.01959 37.2336 5.84367 37.2336 6.63417C37.2336 7.92067 39.3416 8.56909 41.5116 9.97442C43.9864 11.5761 44.3145 13.015 44.2835 14.5805C44.2499 17.8226 41.5116 21.0233 35.7352 21.0233C33.1003 20.9846 32.1496 20.765 30.0002 20.0003L30.9096 15.805C33.0977 16.7195 34.0251 17.0114 35.8954 17.0114C37.6082 17.0114 39.0781 16.3191 39.091 15.1127C39.1013 14.255 38.5743 13.8288 36.6523 12.7696C34.7303 11.7078 32.0333 10.2405 32.0695 7.28775C32.1134 3.51092 35.6913 0.976669 40.7702 0.976669Z" fill="white"/>
</svg>
